<?xml version="1.0" standalone="no"?>
<!DOCTYPE svg PUBLIC "-//W3C//DTD SVG 20010904//EN"
 "http://www.w3.org/TR/2001/REC-SVG-20010904/DTD/svg10.dtd">
<svg version="1.0" xmlns="http://www.w3.org/2000/svg"
 width="512.000000pt" height="512.000000pt" viewBox="0 0 512.000000 512.000000"
 preserveAspectRatio="xMidYMid meet">

<g transform="translate(0.000000,512.000000) scale(0.100000,-0.100000)"
fill="#000000" stroke="none">
<path d="M4215 4415 c-31 -11 -382 -357 -1771 -1747 -1520 -1521 -1734 -1738
-1743 -1773 -30 -118 76 -225 194 -194 34 9 90 60 360 329 l320 317 75 -33
c192 -86 482 -162 704 -183 628 -61 1304 173 1811 628 285 256 475 576 475
801 0 300 -307 715 -754 1019 l-48 33 285 287 c310 310 317 320 297 405 -8 36
-48 89 -80 106 -32 16 -86 19 -125 5z m-427 -1159 c215 -158 430 -402 499
-568 74 -175 -7 -359 -271 -624 -345 -344 -795 -562 -1268 -613 -256 -28 -524
2 -793 90 -66 22 -123 43 -127 47 -4 4 59 74 141 156 l148 148 55 -31 c251
-142 578 -130 821 29 352 229 470 697 266 1058 l-31 55 188 188 187 188 39
-22 c21 -12 87 -57 146 -101z m-773 -543 c9 -27 19 -79 22 -118 23 -285 -222
-533 -507 -512 -72 5 -170 32 -170 45 0 9 623 632 632 632 3 0 14 -21 23 -47z"/>
<path d="M2335 3989 c-650 -71 -1334 -463 -1676 -961 -111 -162 -179 -340
-179 -468 0 -178 120 -422 317 -642 103 -115 230 -228 257 -228 25 0 206 177
206 202 0 9 -65 81 -143 159 -215 216 -311 372 -311 509 0 133 96 293 293 491
346 347 797 566 1273 618 178 20 354 11 551 -26 l88 -17 100 100 c119 118 126
127 106 158 -17 26 -158 64 -332 91 -123 20 -429 27 -550 14z"/>
<path d="M2425 3349 c-312 -58 -561 -287 -639 -589 -19 -74 -32 -234 -22 -274
4 -15 18 -32 32 -38 24 -11 32 -5 165 128 103 102 149 155 171 198 41 80 125
166 201 206 45 24 101 71 205 174 78 77 142 146 142 153 0 7 -9 22 -20 33 -17
17 -32 20 -102 19 -46 -1 -105 -5 -133 -10z"/>
</g>
</svg>
